<?xml version="1.0" encoding="UTF-8" standalone="no"?>
<svg
   xmlns:dc="http://purl.org/dc/elements/1.1/"
   xmlns:cc="http://creativecommons.org/ns#"
   xmlns:rdf="http://www.w3.org/1999/02/22-rdf-syntax-ns#"
   xmlns:svg="http://www.w3.org/2000/svg"
   xmlns="http://www.w3.org/2000/svg"
   xmlns:xlink="http://www.w3.org/1999/xlink"
   version="1.1"
   viewBox="0 0 750 750"
   id="logo">
  <metadata
     id="metadata35">
    <rdf:RDF>
      <cc:Work
         rdf:about="">
        <dc:format>image/svg+xml</dc:format>
        <dc:type
           rdf:resource="http://purl.org/dc/dcmitype/StillImage" />
        <dc:title></dc:title>
      </cc:Work>
    </rdf:RDF>
  </metadata>
  <defs
     id="defs19">
    <style
       id="style2">.cls-1{isolation:isolate;}.cls-2{opacity:0.75;mix-blend-mode:multiply;}.cls-3{fill:url(#linear-gradient);}.cls-4{fill:url(#linear-gradient-2);}.cls-5{fill:url(#linear-gradient-3);}</style>
    <linearGradient
       gradientUnits="userSpaceOnUse"
       y2="221.7"
       x2="546.4"
       y1="461.37"
       x1="222.8"
       id="linear-gradient">
      <stop
         id="stop4"
         stop-color="#fff"
         offset="0.07" />
      <stop
         id="stop6"
         stop-color="#fdfdfd"
         offset="0.43" />
      <stop
         id="stop8"
         stop-color="#f4f4f4"
         offset="0.64" />
      <stop
         id="stop10"
         stop-color="#e7e7e7"
         offset="0.8" />
      <stop
         id="stop12"
         stop-color="#d3d3d3"
         offset="0.94" />
      <stop
         id="stop14"
         stop-color="#c9c9c9"
         offset="1" />
    </linearGradient>
    <linearGradient
       xlink:href="#linear-gradient"
       y2="478.37"
       x2="514.46"
       y1="558.54"
       x1="406.21"
       id="linear-gradient-2" />
    <linearGradient
       xlink:href="#linear-gradient"
       y2="211.18"
       x2="298.72"
       y1="357.92"
       x1="100.59"
       id="linear-gradient-3" />
  </defs>
  <g
     id="g30"
     class="cls-1">
    <g
       data-name="Layer 1"
       id="Layer_1">
      <image
         id="image21"
         transform="translate(151 140)"
         height="480"
         width="458"
         class="cls-2" />
      <path
         id="path23"
         d="M488.64,154.93,166.47,477.37a16.75,16.75,0,0,0-4.91,11.84v94A16.75,16.75,0,0,0,178.32,600h0a16.75,16.75,0,0,0,11.84-4.91L559.35,225.64a16.75,16.75,0,0,0,0-23.69l-47-47A16.75,16.75,0,0,0,488.64,154.93Z"
         class="cls-3" />
      <path
         id="path25"
         d="M342.93,472.79,465.34,595.2a16.39,16.39,0,0,0,11.58,4.8H572c14.59,0,21.89-17.64,11.58-28l-170-170a16.39,16.39,0,0,0-23.16,0l-47.55,47.56A16.36,16.36,0,0,0,342.93,472.79Z"
         class="cls-4" />
      <path
         id="path27"
         d="M178,150a16.43,16.43,0,0,0-16.43,16.43V434.75c0,14.63,17.7,22,28.05,11.61l21.95-21.95L261,375h.59V166.43A16.42,16.42,0,0,0,245.14,150Z"
         class="cls-5" />
    </g>
  </g>
</svg>
